<mxfile host="app.diagrams.net" agent="Mozilla/5.0 (Windows NT 10.0; Win64; x64) AppleWebKit/537.36 (KHTML, like Gecko) Chrome/131.0.0.0 Safari/537.36" version="24.8.6">
  <diagram name="Side-1" id="ZvDTfBXj7Lb2tHVjFOLd">
    <mxGraphModel dx="1434" dy="780" grid="1" gridSize="10" guides="1" tooltips="1" connect="1" arrows="1" fold="1" page="1" pageScale="1" pageWidth="827" pageHeight="1169" math="0" shadow="0">
      <root>
        <mxCell id="0" />
        <mxCell id="1" parent="0" />
        <mxCell id="B4UfNnjHRvwnra4Y9gSJ-625" value="&lt;font style=&quot;font-size: 20px;&quot;&gt;MCU&lt;/font&gt;" style="rounded=1;whiteSpace=wrap;html=1;fillColor=none;" parent="1" vertex="1">
          <mxGeometry x="852" y="600" width="240" height="380" as="geometry" />
        </mxCell>
        <mxCell id="B4UfNnjHRvwnra4Y9gSJ-643" style="edgeStyle=orthogonalEdgeStyle;rounded=0;orthogonalLoop=1;jettySize=auto;html=1;exitX=0;exitY=0.21666666666666667;exitDx=0;exitDy=3;exitPerimeter=0;endArrow=none;endFill=0;startArrow=classic;startFill=1;" parent="1" source="B4UfNnjHRvwnra4Y9gSJ-4" target="B4UfNnjHRvwnra4Y9gSJ-600" edge="1">
          <mxGeometry relative="1" as="geometry" />
        </mxCell>
        <mxCell id="B4UfNnjHRvwnra4Y9gSJ-644" style="edgeStyle=orthogonalEdgeStyle;rounded=0;orthogonalLoop=1;jettySize=auto;html=1;exitX=0;exitY=0.65;exitDx=0;exitDy=3;exitPerimeter=0;entryX=1;entryY=0.5;entryDx=0;entryDy=0;endArrow=none;endFill=0;startArrow=classic;startFill=1;" parent="1" source="B4UfNnjHRvwnra4Y9gSJ-4" target="B4UfNnjHRvwnra4Y9gSJ-601" edge="1">
          <mxGeometry relative="1" as="geometry" />
        </mxCell>
        <mxCell id="B4UfNnjHRvwnra4Y9gSJ-4" value="&lt;font style=&quot;font-size: 16px;&quot;&gt;MUX&lt;/font&gt;" style="shadow=0;dashed=0;align=center;html=1;strokeWidth=1;shape=mxgraph.electrical.abstract.mux2;whiteSpace=wrap;" parent="1" vertex="1">
          <mxGeometry x="320" y="651" width="80" height="120" as="geometry" />
        </mxCell>
        <mxCell id="B4UfNnjHRvwnra4Y9gSJ-577" value="&lt;font style=&quot;font-size: 20px;&quot;&gt;IO Buffer&lt;/font&gt;" style="swimlane;whiteSpace=wrap;html=1;startSize=50;" parent="1" vertex="1">
          <mxGeometry x="640" y="400" width="130" height="360" as="geometry" />
        </mxCell>
        <mxCell id="B4UfNnjHRvwnra4Y9gSJ-578" value="&lt;font style=&quot;font-size: 18px;&quot;&gt;T&lt;/font&gt;" style="text;html=1;align=center;verticalAlign=middle;whiteSpace=wrap;rounded=0;" parent="B4UfNnjHRvwnra4Y9gSJ-577" vertex="1">
          <mxGeometry y="125" width="30" height="20" as="geometry" />
        </mxCell>
        <mxCell id="B4UfNnjHRvwnra4Y9gSJ-579" value="&lt;font style=&quot;font-size: 18px;&quot;&gt;O&lt;/font&gt;" style="text;html=1;align=center;verticalAlign=middle;whiteSpace=wrap;rounded=0;" parent="B4UfNnjHRvwnra4Y9gSJ-577" vertex="1">
          <mxGeometry y="87" width="30" height="20" as="geometry" />
        </mxCell>
        <mxCell id="B4UfNnjHRvwnra4Y9gSJ-580" value="&lt;font style=&quot;font-size: 18px;&quot;&gt;I&lt;/font&gt;" style="text;html=1;align=center;verticalAlign=middle;whiteSpace=wrap;rounded=0;" parent="B4UfNnjHRvwnra4Y9gSJ-577" vertex="1">
          <mxGeometry y="280" width="30" height="20" as="geometry" />
        </mxCell>
        <mxCell id="B4UfNnjHRvwnra4Y9gSJ-581" value="" style="ellipse;whiteSpace=wrap;html=1;aspect=fixed;" parent="B4UfNnjHRvwnra4Y9gSJ-577" vertex="1">
          <mxGeometry x="50" y="126" width="10" height="10" as="geometry" />
        </mxCell>
        <mxCell id="B4UfNnjHRvwnra4Y9gSJ-582" value="" style="verticalLabelPosition=bottom;shadow=0;dashed=0;align=center;html=1;verticalAlign=top;shape=mxgraph.electrical.abstract.amplifier;direction=west;" parent="B4UfNnjHRvwnra4Y9gSJ-577" vertex="1">
          <mxGeometry x="35" y="87" width="40" height="50" as="geometry" />
        </mxCell>
        <mxCell id="B4UfNnjHRvwnra4Y9gSJ-583" value="" style="verticalLabelPosition=bottom;shadow=0;dashed=0;align=center;html=1;verticalAlign=top;shape=mxgraph.electrical.abstract.amplifier;direction=east;" parent="B4UfNnjHRvwnra4Y9gSJ-577" vertex="1">
          <mxGeometry x="35" y="281" width="40" height="50" as="geometry" />
        </mxCell>
        <mxCell id="B4UfNnjHRvwnra4Y9gSJ-584" style="edgeStyle=orthogonalEdgeStyle;rounded=0;orthogonalLoop=1;jettySize=auto;html=1;exitX=0;exitY=0.5;exitDx=0;exitDy=0;exitPerimeter=0;entryX=1;entryY=0.5;entryDx=0;entryDy=0;entryPerimeter=0;endArrow=none;endFill=0;startArrow=none;startFill=0;" parent="B4UfNnjHRvwnra4Y9gSJ-577" source="B4UfNnjHRvwnra4Y9gSJ-582" target="B4UfNnjHRvwnra4Y9gSJ-583" edge="1">
          <mxGeometry relative="1" as="geometry" />
        </mxCell>
        <mxCell id="B4UfNnjHRvwnra4Y9gSJ-585" value="&lt;font style=&quot;font-size: 18px;&quot;&gt;IO&lt;/font&gt;" style="text;html=1;align=center;verticalAlign=middle;whiteSpace=wrap;rounded=0;" parent="B4UfNnjHRvwnra4Y9gSJ-577" vertex="1">
          <mxGeometry x="90" y="320" width="30" height="20" as="geometry" />
        </mxCell>
        <mxCell id="B4UfNnjHRvwnra4Y9gSJ-588" value="" style="endArrow=none;html=1;rounded=0;" parent="1" edge="1">
          <mxGeometry width="50" height="50" relative="1" as="geometry">
            <mxPoint x="550" y="518" as="sourcePoint" />
            <mxPoint x="560" y="505" as="targetPoint" />
          </mxGeometry>
        </mxCell>
        <mxCell id="B4UfNnjHRvwnra4Y9gSJ-591" style="edgeStyle=orthogonalEdgeStyle;rounded=0;orthogonalLoop=1;jettySize=auto;html=1;exitX=1;exitY=0.5;exitDx=0;exitDy=-5;exitPerimeter=0;entryX=0;entryY=0.5;entryDx=0;entryDy=0;entryPerimeter=0;endArrow=classic;endFill=1;startArrow=none;startFill=0;" parent="1" source="B4UfNnjHRvwnra4Y9gSJ-4" target="B4UfNnjHRvwnra4Y9gSJ-583" edge="1">
          <mxGeometry relative="1" as="geometry" />
        </mxCell>
        <mxCell id="B4UfNnjHRvwnra4Y9gSJ-602" style="edgeStyle=orthogonalEdgeStyle;rounded=0;orthogonalLoop=1;jettySize=auto;html=1;exitX=0;exitY=0.4583333333333333;exitDx=0;exitDy=0;exitPerimeter=0;entryX=1;entryY=0.25;entryDx=0;entryDy=0;endArrow=classic;endFill=1;startArrow=none;startFill=0;" parent="1" source="B4UfNnjHRvwnra4Y9gSJ-595" target="B4UfNnjHRvwnra4Y9gSJ-601" edge="1">
          <mxGeometry relative="1" as="geometry">
            <mxPoint x="200" y="580" as="targetPoint" />
          </mxGeometry>
        </mxCell>
        <mxCell id="B4UfNnjHRvwnra4Y9gSJ-595" value="&lt;font style=&quot;font-size: 16px;&quot;&gt;MUX&lt;/font&gt;" style="shadow=0;dashed=0;align=center;html=1;strokeWidth=1;shape=mxgraph.electrical.abstract.mux2;operation=demux;whiteSpace=wrap;" parent="1" vertex="1">
          <mxGeometry x="400" y="483" width="80" height="120" as="geometry" />
        </mxCell>
        <mxCell id="B4UfNnjHRvwnra4Y9gSJ-598" style="edgeStyle=orthogonalEdgeStyle;rounded=0;orthogonalLoop=1;jettySize=auto;html=1;exitX=1;exitY=0.5;exitDx=0;exitDy=0;exitPerimeter=0;entryX=1;entryY=0.21666666666666667;entryDx=0;entryDy=3;entryPerimeter=0;endArrow=classic;endFill=1;" parent="1" source="B4UfNnjHRvwnra4Y9gSJ-582" target="B4UfNnjHRvwnra4Y9gSJ-595" edge="1">
          <mxGeometry relative="1" as="geometry" />
        </mxCell>
        <mxCell id="B4UfNnjHRvwnra4Y9gSJ-600" value="&lt;font style=&quot;font-size: 20px;&quot;&gt;IV_Saver&lt;/font&gt;" style="rounded=1;whiteSpace=wrap;html=1;" parent="1" vertex="1">
          <mxGeometry y="620" width="120" height="120" as="geometry" />
        </mxCell>
        <mxCell id="B4UfNnjHRvwnra4Y9gSJ-601" value="&lt;font style=&quot;font-size: 20px;&quot;&gt;Internal&lt;br&gt;Memory&lt;/font&gt;" style="rounded=1;whiteSpace=wrap;html=1;" parent="1" vertex="1">
          <mxGeometry y="420" width="120" height="120" as="geometry" />
        </mxCell>
        <mxCell id="B4UfNnjHRvwnra4Y9gSJ-611" value="0x&quot;0000&quot;" style="text;html=1;align=center;verticalAlign=middle;resizable=0;points=[];autosize=1;strokeColor=none;fillColor=none;" parent="1" vertex="1">
          <mxGeometry x="480" y="550" width="70" height="30" as="geometry" />
        </mxCell>
        <mxCell id="B4UfNnjHRvwnra4Y9gSJ-614" value="CLK" style="text;html=1;align=center;verticalAlign=middle;resizable=0;points=[];autosize=1;strokeColor=none;fillColor=none;" parent="1" vertex="1">
          <mxGeometry x="890" y="837" width="50" height="30" as="geometry" />
        </mxCell>
        <mxCell id="B4UfNnjHRvwnra4Y9gSJ-615" style="edgeStyle=orthogonalEdgeStyle;rounded=0;orthogonalLoop=1;jettySize=auto;html=1;endArrow=none;endFill=0;entryX=1;entryY=0.65;entryDx=0;entryDy=3;entryPerimeter=0;" parent="1" source="B4UfNnjHRvwnra4Y9gSJ-614" target="s_QZSiqQWg_gk6G7vuae-4" edge="1">
          <mxGeometry relative="1" as="geometry">
            <mxPoint x="330" y="845" as="targetPoint" />
          </mxGeometry>
        </mxCell>
        <mxCell id="s_QZSiqQWg_gk6G7vuae-13" style="edgeStyle=orthogonalEdgeStyle;rounded=0;orthogonalLoop=1;jettySize=auto;html=1;" edge="1" parent="1" source="B4UfNnjHRvwnra4Y9gSJ-616" target="s_QZSiqQWg_gk6G7vuae-4">
          <mxGeometry relative="1" as="geometry" />
        </mxCell>
        <mxCell id="B4UfNnjHRvwnra4Y9gSJ-616" value="IX" style="text;html=1;align=center;verticalAlign=middle;resizable=0;points=[];autosize=1;strokeColor=none;fillColor=none;" parent="1" vertex="1">
          <mxGeometry x="890" y="920" width="30" height="30" as="geometry" />
        </mxCell>
        <mxCell id="B4UfNnjHRvwnra4Y9gSJ-618" style="edgeStyle=orthogonalEdgeStyle;rounded=0;orthogonalLoop=1;jettySize=auto;html=1;entryX=0.375;entryY=1;entryDx=10;entryDy=0;entryPerimeter=0;endArrow=classic;endFill=1;startArrow=none;startFill=0;" parent="1" source="B4UfNnjHRvwnra4Y9gSJ-616" target="B4UfNnjHRvwnra4Y9gSJ-4" edge="1">
          <mxGeometry relative="1" as="geometry" />
        </mxCell>
        <mxCell id="B4UfNnjHRvwnra4Y9gSJ-619" style="edgeStyle=orthogonalEdgeStyle;rounded=0;orthogonalLoop=1;jettySize=auto;html=1;entryX=0.375;entryY=1;entryDx=10;entryDy=0;entryPerimeter=0;endArrow=classic;endFill=1;startArrow=none;startFill=0;" parent="1" source="B4UfNnjHRvwnra4Y9gSJ-616" target="B4UfNnjHRvwnra4Y9gSJ-595" edge="1">
          <mxGeometry relative="1" as="geometry" />
        </mxCell>
        <mxCell id="B4UfNnjHRvwnra4Y9gSJ-621" style="edgeStyle=orthogonalEdgeStyle;rounded=0;orthogonalLoop=1;jettySize=auto;html=1;entryX=0.5;entryY=1;entryDx=0;entryDy=0;endArrow=classic;endFill=1;" parent="1" source="B4UfNnjHRvwnra4Y9gSJ-620" target="B4UfNnjHRvwnra4Y9gSJ-581" edge="1">
          <mxGeometry relative="1" as="geometry" />
        </mxCell>
        <mxCell id="B4UfNnjHRvwnra4Y9gSJ-620" value="RW" style="text;html=1;align=center;verticalAlign=middle;resizable=0;points=[];autosize=1;strokeColor=none;fillColor=none;" parent="1" vertex="1">
          <mxGeometry x="890" y="620" width="40" height="30" as="geometry" />
        </mxCell>
        <mxCell id="B4UfNnjHRvwnra4Y9gSJ-622" style="edgeStyle=orthogonalEdgeStyle;rounded=0;orthogonalLoop=1;jettySize=auto;html=1;entryX=0.498;entryY=0.254;entryDx=0;entryDy=0;entryPerimeter=0;endArrow=classic;endFill=1;" parent="1" source="B4UfNnjHRvwnra4Y9gSJ-620" target="B4UfNnjHRvwnra4Y9gSJ-583" edge="1">
          <mxGeometry relative="1" as="geometry" />
        </mxCell>
        <mxCell id="B4UfNnjHRvwnra4Y9gSJ-624" value="" style="endArrow=none;dashed=1;html=1;rounded=0;" parent="1" edge="1">
          <mxGeometry width="50" height="50" relative="1" as="geometry">
            <mxPoint x="830" y="973" as="sourcePoint" />
            <mxPoint x="830" y="603" as="targetPoint" />
          </mxGeometry>
        </mxCell>
        <mxCell id="B4UfNnjHRvwnra4Y9gSJ-627" value="16" style="text;html=1;align=center;verticalAlign=middle;whiteSpace=wrap;rounded=0;" parent="1" vertex="1">
          <mxGeometry x="540" y="500" width="20" height="10" as="geometry" />
        </mxCell>
        <mxCell id="B4UfNnjHRvwnra4Y9gSJ-628" value="" style="endArrow=none;html=1;rounded=0;" parent="1" edge="1">
          <mxGeometry width="50" height="50" relative="1" as="geometry">
            <mxPoint x="791" y="712" as="sourcePoint" />
            <mxPoint x="801" y="699" as="targetPoint" />
          </mxGeometry>
        </mxCell>
        <mxCell id="B4UfNnjHRvwnra4Y9gSJ-629" value="16" style="text;html=1;align=center;verticalAlign=middle;whiteSpace=wrap;rounded=0;" parent="1" vertex="1">
          <mxGeometry x="781" y="694" width="20" height="10" as="geometry" />
        </mxCell>
        <mxCell id="B4UfNnjHRvwnra4Y9gSJ-633" value="IO" style="text;html=1;align=center;verticalAlign=middle;resizable=0;points=[];autosize=1;strokeColor=none;fillColor=none;" parent="1" vertex="1">
          <mxGeometry x="890" y="691" width="40" height="30" as="geometry" />
        </mxCell>
        <mxCell id="B4UfNnjHRvwnra4Y9gSJ-634" style="edgeStyle=orthogonalEdgeStyle;rounded=0;orthogonalLoop=1;jettySize=auto;html=1;endArrow=none;endFill=0;" parent="1" source="B4UfNnjHRvwnra4Y9gSJ-583" target="B4UfNnjHRvwnra4Y9gSJ-633" edge="1">
          <mxGeometry relative="1" as="geometry" />
        </mxCell>
        <mxCell id="B4UfNnjHRvwnra4Y9gSJ-635" value="" style="endArrow=none;html=1;rounded=0;" parent="1" edge="1">
          <mxGeometry width="50" height="50" relative="1" as="geometry">
            <mxPoint x="360" y="544" as="sourcePoint" />
            <mxPoint x="370" y="531" as="targetPoint" />
          </mxGeometry>
        </mxCell>
        <mxCell id="B4UfNnjHRvwnra4Y9gSJ-636" value="16" style="text;html=1;align=center;verticalAlign=middle;whiteSpace=wrap;rounded=0;" parent="1" vertex="1">
          <mxGeometry x="350" y="526" width="20" height="10" as="geometry" />
        </mxCell>
        <mxCell id="B4UfNnjHRvwnra4Y9gSJ-637" value="" style="endArrow=none;html=1;rounded=0;" parent="1" edge="1">
          <mxGeometry width="50" height="50" relative="1" as="geometry">
            <mxPoint x="490" y="711" as="sourcePoint" />
            <mxPoint x="500" y="698" as="targetPoint" />
          </mxGeometry>
        </mxCell>
        <mxCell id="B4UfNnjHRvwnra4Y9gSJ-638" value="16" style="text;html=1;align=center;verticalAlign=middle;whiteSpace=wrap;rounded=0;" parent="1" vertex="1">
          <mxGeometry x="480" y="693" width="20" height="10" as="geometry" />
        </mxCell>
        <mxCell id="B4UfNnjHRvwnra4Y9gSJ-639" value="" style="endArrow=none;html=1;rounded=0;" parent="1" edge="1">
          <mxGeometry width="50" height="50" relative="1" as="geometry">
            <mxPoint x="290" y="686" as="sourcePoint" />
            <mxPoint x="300" y="673" as="targetPoint" />
          </mxGeometry>
        </mxCell>
        <mxCell id="B4UfNnjHRvwnra4Y9gSJ-640" value="16" style="text;html=1;align=center;verticalAlign=middle;whiteSpace=wrap;rounded=0;" parent="1" vertex="1">
          <mxGeometry x="280" y="667" width="20" height="10" as="geometry" />
        </mxCell>
        <mxCell id="B4UfNnjHRvwnra4Y9gSJ-641" value="" style="endArrow=none;html=1;rounded=0;" parent="1" edge="1">
          <mxGeometry width="50" height="50" relative="1" as="geometry">
            <mxPoint x="290" y="737" as="sourcePoint" />
            <mxPoint x="300" y="724" as="targetPoint" />
          </mxGeometry>
        </mxCell>
        <mxCell id="B4UfNnjHRvwnra4Y9gSJ-642" value="16" style="text;html=1;align=center;verticalAlign=middle;whiteSpace=wrap;rounded=0;" parent="1" vertex="1">
          <mxGeometry x="280" y="719" width="20" height="10" as="geometry" />
        </mxCell>
        <mxCell id="s_QZSiqQWg_gk6G7vuae-8" style="edgeStyle=orthogonalEdgeStyle;rounded=0;orthogonalLoop=1;jettySize=auto;html=1;exitX=0;exitY=0.4583333333333333;exitDx=0;exitDy=0;exitPerimeter=0;entryX=0.5;entryY=1;entryDx=0;entryDy=0;" edge="1" parent="1" source="s_QZSiqQWg_gk6G7vuae-4" target="B4UfNnjHRvwnra4Y9gSJ-600">
          <mxGeometry relative="1" as="geometry" />
        </mxCell>
        <mxCell id="s_QZSiqQWg_gk6G7vuae-4" value="&lt;font style=&quot;font-size: 16px;&quot;&gt;MUX&lt;/font&gt;" style="shadow=0;dashed=0;align=center;html=1;strokeWidth=1;shape=mxgraph.electrical.abstract.mux2;operation=demux;whiteSpace=wrap;" vertex="1" parent="1">
          <mxGeometry x="200" y="771" width="80" height="120" as="geometry" />
        </mxCell>
        <mxCell id="s_QZSiqQWg_gk6G7vuae-7" value="0" style="text;html=1;align=center;verticalAlign=middle;resizable=0;points=[];autosize=1;strokeColor=none;fillColor=none;" vertex="1" parent="1">
          <mxGeometry x="275" y="786" width="30" height="30" as="geometry" />
        </mxCell>
        <mxCell id="s_QZSiqQWg_gk6G7vuae-11" style="edgeStyle=orthogonalEdgeStyle;rounded=0;orthogonalLoop=1;jettySize=auto;html=1;exitX=0;exitY=0.4583333333333333;exitDx=0;exitDy=0;exitPerimeter=0;entryX=1;entryY=0.75;entryDx=0;entryDy=0;" edge="1" parent="1" source="s_QZSiqQWg_gk6G7vuae-9" target="B4UfNnjHRvwnra4Y9gSJ-601">
          <mxGeometry relative="1" as="geometry" />
        </mxCell>
        <mxCell id="s_QZSiqQWg_gk6G7vuae-9" value="&lt;font style=&quot;font-size: 16px;&quot;&gt;MUX&lt;/font&gt;" style="shadow=0;dashed=0;align=center;html=1;strokeWidth=1;shape=mxgraph.electrical.abstract.mux2;operation=demux;whiteSpace=wrap;" vertex="1" parent="1">
          <mxGeometry x="200" y="960" width="80" height="120" as="geometry" />
        </mxCell>
        <mxCell id="s_QZSiqQWg_gk6G7vuae-10" style="edgeStyle=orthogonalEdgeStyle;rounded=0;orthogonalLoop=1;jettySize=auto;html=1;entryX=1;entryY=0.21666666666666667;entryDx=0;entryDy=3;entryPerimeter=0;" edge="1" parent="1" source="B4UfNnjHRvwnra4Y9gSJ-614" target="s_QZSiqQWg_gk6G7vuae-9">
          <mxGeometry relative="1" as="geometry">
            <Array as="points">
              <mxPoint x="320" y="852" />
              <mxPoint x="320" y="989" />
            </Array>
          </mxGeometry>
        </mxCell>
        <mxCell id="s_QZSiqQWg_gk6G7vuae-12" value="0" style="text;html=1;align=center;verticalAlign=middle;resizable=0;points=[];autosize=1;strokeColor=none;fillColor=none;" vertex="1" parent="1">
          <mxGeometry x="275" y="1027" width="30" height="30" as="geometry" />
        </mxCell>
        <mxCell id="s_QZSiqQWg_gk6G7vuae-14" style="edgeStyle=orthogonalEdgeStyle;rounded=0;orthogonalLoop=1;jettySize=auto;html=1;entryX=0.375;entryY=1;entryDx=10;entryDy=0;entryPerimeter=0;" edge="1" parent="1" source="B4UfNnjHRvwnra4Y9gSJ-616" target="s_QZSiqQWg_gk6G7vuae-9">
          <mxGeometry relative="1" as="geometry">
            <Array as="points">
              <mxPoint x="440" y="935" />
              <mxPoint x="440" y="1100" />
              <mxPoint x="240" y="1100" />
            </Array>
          </mxGeometry>
        </mxCell>
      </root>
    </mxGraphModel>
  </diagram>
</mxfile>
